<svg width="4" height="18" viewBox="0 0 4 18" fill="none" xmlns="http://www.w3.org/2000/svg">
<path fill-rule="evenodd" clip-rule="evenodd" d="M4 2C4 0.89543 3.10457 -3.91405e-08 2 -8.74228e-08C0.89543 -1.35705e-07 -3.91405e-08 0.89543 -8.74228e-08 2C-1.35705e-07 3.10457 0.89543 4 2 4C3.10457 4 4 3.10457 4 2ZM2 7C3.10457 7 4 7.89543 4 9C4 10.1046 3.10457 11 2 11C0.89543 11 -4.41685e-07 10.1046 -3.93402e-07 9C-3.4512e-07 7.89543 0.89543 7 2 7ZM2 14C3.10457 14 4 14.8954 4 16C4 17.1046 3.10457 18 2 18C0.895429 18 -7.47665e-07 17.1046 -6.99382e-07 16C-6.511e-07 14.8954 0.895429 14 2 14Z" fill="#181818"/>
</svg>
