<svg width="16" height="16" viewBox="0 0 16 16" fill="none" xmlns="http://www.w3.org/2000/svg">
<g id="shuffle 1">
<g id="Group">
<g id="Group_2">
<path id="Vector" d="M15.82 11.616L12.82 9.116C12.671 8.991 12.463 8.966 12.288 9.047C12.112 9.13 12 9.306 12 9.5V11H11L5.3 3.4C5.111 3.148 4.815 3 4.5 3H0.5C0.224 3 0 3.224 0 3.5V4.5C0 4.776 0.224 5 0.5 5H4L9.701 12.6C9.889 12.852 10.186 13 10.5 13H12V14.5C12 14.694 12.112 14.87 12.288 14.953C12.355 14.984 12.428 15 12.5 15C12.615 15 12.729 14.961 12.82 14.884L15.82 12.384C15.935 12.289 16 12.148 16 12C16 11.852 15.935 11.711 15.82 11.616Z" fill="#3B4145" fill-opacity="0.6"/>
</g>
</g>
<g id="Group_3">
<g id="Group_4">
<path id="Vector_2" d="M15.82 3.61526L12.82 1.11526C12.671 0.991257 12.463 0.965256 12.288 1.04726C12.112 1.12826 12 1.30526 12 1.49926V2.99926H10.5C10.185 2.99926 9.889 3.14726 9.7 3.39926L8.125 5.49926L9.375 7.16626L11 4.99926H12V6.49926C12 6.69326 12.112 6.87026 12.288 6.95226C12.355 6.98326 12.428 6.99926 12.5 6.99926C12.615 6.99926 12.729 6.95926 12.82 6.88326L15.82 4.38326C15.935 4.28826 16 4.14726 16 3.99926C16 3.85126 15.935 3.71026 15.82 3.61526Z" fill="#3B4145" fill-opacity="0.6"/>
</g>
</g>
<g id="Group_5">
<g id="Group_6">
<path id="Vector_3" d="M5.625 8.83398L4 11H0.5C0.224 11 0 11.224 0 11.5V12.5C0 12.776 0.224 13 0.5 13H4.499C4.814 13 5.111 12.852 5.3 12.6L6.875 10.5L5.625 8.83398Z" fill="#3B4145" fill-opacity="0.6"/>
</g>
</g>
</g>
</svg>
