<svg width="16" height="16" viewBox="0 0 16 16" fill="none" xmlns="http://www.w3.org/2000/svg">
<g id="next 2" clip-path="url(#clip0_1299_157)">
<g id="Group">
<g id="Group_2">
<path id="Vector" d="M5.16934 7.50776L15.0154 0.123213C15.2 -0.0170932 15.4511 -0.0392468 15.6591 0.0653675C15.8683 0.169982 16 0.382903 16 0.615516V15.3846C16 15.6172 15.8683 15.8301 15.6603 15.9348C15.5729 15.9778 15.4782 16 15.3846 16C15.2542 16 15.1237 15.9581 15.0154 15.8769L5.16934 8.49236C5.01426 8.37667 4.92318 8.19329 4.92318 8.00006C4.92318 7.80683 5.01426 7.62345 5.16934 7.50776Z" fill="#2882F1"/>
</g>
</g>
<g id="Group_3">
<g id="Group_4">
<path id="Vector_2" d="M0.615289 0H1.84605C2.18574 0 2.46143 0.275689 2.46143 0.615378V15.3844C2.46143 15.7241 2.18574 15.9998 1.84605 15.9998H0.615289C0.2756 15.9998 -8.96454e-05 15.7241 -8.96454e-05 15.3844V0.615378C-8.96454e-05 0.275689 0.2756 0 0.615289 0Z" fill="#2882F1"/>
</g>
</g>
</g>
<defs>
<clipPath id="clip0_1299_157">
<rect width="16" height="16" fill="white" transform="matrix(-1 0 0 1 16 0)"/>
</clipPath>
</defs>
</svg>
