<svg width="16" height="16" viewBox="0 0 16 16" fill="none" xmlns="http://www.w3.org/2000/svg">
<g id="next 1" clip-path="url(#clip0_1299_178)">
<g id="Group">
<g id="Group_2">
<path id="Vector" d="M10.8307 7.50776L0.984606 0.123213C0.799992 -0.0170932 0.548918 -0.0392468 0.34092 0.0653675C0.131691 0.169982 0 0.382903 0 0.615516V15.3846C0 15.6172 0.131691 15.8301 0.339689 15.9348C0.427073 15.9778 0.521841 16 0.615379 16C0.745839 16 0.876299 15.9581 0.984606 15.8769L10.8307 8.49236C10.9857 8.37667 11.0768 8.19329 11.0768 8.00006C11.0768 7.80683 10.9857 7.62345 10.8307 7.50776Z" fill="#2882F1"/>
</g>
</g>
<g id="Group_3">
<g id="Group_4">
<path id="Vector_2" d="M15.3847 0H14.154C13.8143 0 13.5386 0.275689 13.5386 0.615378V15.3844C13.5386 15.7241 13.8143 15.9998 14.154 15.9998H15.3847C15.7244 15.9998 16.0001 15.7241 16.0001 15.3844V0.615378C16.0001 0.275689 15.7244 0 15.3847 0Z" fill="#2882F1"/>
</g>
</g>
</g>
<defs>
<clipPath id="clip0_1299_178">
<rect width="16" height="16" fill="white"/>
</clipPath>
</defs>
</svg>
