<svg width="48" height="48" viewBox="0 0 48 48" fill="none" xmlns="http://www.w3.org/2000/svg">
<path d="M42.5737 1.50195H5.4289C2.43479 1.50195 0 3.93594 0 6.93359V41.0719C0 44.066 2.43479 46.4974 5.4289 46.4974H42.5735C45.5676 46.4974 47.9998 44.066 47.9998 41.0719V6.93359C48 3.93594 45.5678 1.50195 42.5737 1.50195ZM31.0392 9.57983C33.9347 9.57983 36.2829 11.9282 36.2829 14.8235C36.2829 17.7188 33.9345 20.0671 31.0392 20.0671C28.143 20.0671 25.7956 17.7188 25.7956 14.8235C25.7956 11.9282 28.143 9.57983 31.0392 9.57983ZM40.8711 41.479H23.9995H7.8796C6.43139 41.479 5.78642 40.4312 6.43926 39.1386L15.4383 21.3143C16.0904 20.0218 17.3331 19.9064 18.2131 21.0564L27.262 32.8818C28.142 34.032 29.6802 34.1298 30.6983 33.0994L32.912 30.8577C33.9292 29.8273 35.4281 29.9549 36.2583 31.1409L41.9906 39.329C42.8192 40.5167 42.3193 41.479 40.8711 41.479Z" fill="#AFB6CF"/>
</svg>
