<svg width="20" height="22" viewBox="0 0 20 22" fill="none" xmlns="http://www.w3.org/2000/svg">
<path fill-rule="evenodd" clip-rule="evenodd" d="M13.7935 0C14.2075 0 14.5435 0.336 14.5435 0.75L14.544 1.59781C16.0041 1.69792 17.2167 2.19805 18.075 3.0581C19.012 3.9991 19.505 5.3521 19.5 6.9751V16.0981C19.5 19.4301 17.384 21.5001 13.979 21.5001H5.521C2.116 21.5001 0 19.4011 0 16.0221V6.9731C0 3.83029 1.88706 1.81294 4.96469 1.59815L4.9653 0.75C4.9653 0.336 5.3013 0 5.7153 0C6.1293 0 6.4653 0.336 6.4653 0.75L6.465 1.579H13.043L13.0435 0.75C13.0435 0.336 13.3795 0 13.7935 0ZM18 8.904H1.5V16.0221C1.5 18.5881 2.928 20.0001 5.521 20.0001H13.979C16.572 20.0001 18 18.6141 18 16.0981L18 8.904ZM14.2012 15.1963C14.6152 15.1963 14.9512 15.5323 14.9512 15.9463C14.9512 16.3603 14.6152 16.6963 14.2012 16.6963C13.7872 16.6963 13.4472 16.3603 13.4472 15.9463C13.4472 15.5323 13.7782 15.1963 14.1922 15.1963H14.2012ZM9.7637 15.1963C10.1777 15.1963 10.5137 15.5323 10.5137 15.9463C10.5137 16.3603 10.1777 16.6963 9.7637 16.6963C9.3497 16.6963 9.0097 16.3603 9.0097 15.9463C9.0097 15.5323 9.3407 15.1963 9.7547 15.1963H9.7637ZM5.3169 15.1963C5.7309 15.1963 6.0669 15.5323 6.0669 15.9463C6.0669 16.3603 5.7309 16.6963 5.3169 16.6963C4.9029 16.6963 4.5619 16.3603 4.5619 15.9463C4.5619 15.5323 4.8939 15.1963 5.3079 15.1963H5.3169ZM14.2012 11.3096C14.6152 11.3096 14.9512 11.6456 14.9512 12.0596C14.9512 12.4736 14.6152 12.8096 14.2012 12.8096C13.7872 12.8096 13.4472 12.4736 13.4472 12.0596C13.4472 11.6456 13.7782 11.3096 14.1922 11.3096H14.2012ZM9.7637 11.3096C10.1777 11.3096 10.5137 11.6456 10.5137 12.0596C10.5137 12.4736 10.1777 12.8096 9.7637 12.8096C9.3497 12.8096 9.0097 12.4736 9.0097 12.0596C9.0097 11.6456 9.3407 11.3096 9.7547 11.3096H9.7637ZM5.3169 11.3096C5.7309 11.3096 6.0669 11.6456 6.0669 12.0596C6.0669 12.4736 5.7309 12.8096 5.3169 12.8096C4.9029 12.8096 4.5619 12.4736 4.5619 12.0596C4.5619 11.6456 4.8939 11.3096 5.3079 11.3096H5.3169ZM13.043 3.079H6.465L6.4653 4.041C6.4653 4.455 6.1293 4.791 5.7153 4.791C5.3013 4.791 4.9653 4.455 4.9653 4.041L4.96477 3.1017C2.72454 3.28989 1.5 4.64786 1.5 6.9731V7.404H18L18 6.9731C18.004 5.7381 17.672 4.7781 17.013 4.1181C16.4345 3.53791 15.5889 3.1914 14.5444 3.10218L14.5435 4.041C14.5435 4.455 14.2075 4.791 13.7935 4.791C13.3795 4.791 13.0435 4.455 13.0435 4.041L13.043 3.079Z" fill="#2882F1"/>
</svg>
