<svg width="16" height="16" viewBox="0 0 16 16" fill="none" xmlns="http://www.w3.org/2000/svg">
<g id="repeat 1" clip-path="url(#clip0_1299_185)">
<g id="Group">
<g id="Group_2">
<path id="Vector" d="M11.9996 2.24938H12.2496V1.99938V0.49943C12.2496 0.399692 12.3097 0.308863 12.4049 0.269177L12.3086 0.038444L12.4049 0.269177C12.4979 0.230349 12.6052 0.251592 12.6768 0.323217L15.6767 3.32312C15.7741 3.42049 15.7741 3.57919 15.6767 3.67655L12.6768 6.67645C12.6052 6.74808 12.4979 6.76932 12.4049 6.73049L12.4038 6.73006C12.3109 6.69179 12.2496 6.60034 12.2496 6.49924V4.99929V4.74929H11.9996H5.49983C3.9808 4.74929 2.74991 5.98018 2.74991 7.49921C2.74991 7.63713 2.63784 7.7492 2.49992 7.7492H0.499984C0.362064 7.7492 0.25 7.63713 0.25 7.49921C0.25 4.59938 2.59999 2.24938 5.49983 2.24938H11.9996Z" fill="#3B4145" fill-opacity="0.6" stroke="#F5F6FB" stroke-width="0.5"/>
</g>
</g>
<g id="Group_3">
<g id="Group_4">
<path id="Vector_2" d="M3.75012 10.9999V11.2499H4.00012H10.4999C12.019 11.2499 13.2498 10.019 13.2498 8.49999C13.2498 8.36206 13.3619 8.25 13.4998 8.25H15.4998C15.6377 8.25 15.7498 8.36206 15.7498 8.49999C15.7498 11.3998 13.3998 13.7498 10.4999 13.7498H4.00012H3.75012V13.9998V15.4998C3.75012 15.6001 3.6895 15.6916 3.59489 15.731L3.68169 15.9391L3.59489 15.731C3.50181 15.7699 3.39455 15.7486 3.32293 15.677L0.323023 12.6771C0.225659 12.5797 0.225659 12.421 0.323022 12.3237L3.32231 9.32436C3.3224 9.32427 3.32248 9.32419 3.32257 9.3241C3.39574 9.25164 3.50283 9.2308 3.59595 9.26914C3.68889 9.30741 3.75012 9.39886 3.75012 9.49996V10.9999Z" fill="#3B4145" fill-opacity="0.6" stroke="#F5F6FB" stroke-width="0.5"/>
</g>
</g>
</g>
<defs>
<clipPath id="clip0_1299_185">
<rect width="16" height="16" fill="white"/>
</clipPath>
</defs>
</svg>
